<?xml version="1.0" encoding="UTF-8"?>
<svg id="Layer_2" data-name="Layer 2" xmlns="http://www.w3.org/2000/svg" viewBox="0 0 494.66 155.38">
  <defs>
    <style>
      .cls-1 {
        fill: #fff;
      }

      .cls-2 {
        fill: #45b978;
      }
    </style>
  </defs>
  <g id="Layer_1-2" data-name="Layer 1">
    <g>
      <g>
        <path class="cls-1" d="m150.15,33.49l-56.64,56.65-56.64-56.65H0l93.5,93.51,93.51-93.51h-36.87Z"/>
        <rect class="cls-2" x="62.56" y="6.73" width="38.74" height="53.51" transform="translate(47.68 -48.12) rotate(45)"/>
        <polygon class="cls-2" points="147.15 28.27 93.02 82.4 88.55 77.94 138.22 28.27 115.3 5.34 119.76 .88 147.15 28.27"/>
        <rect class="cls-2" x="62.56" y="6.73" width="38.74" height="53.51" transform="translate(47.68 -48.12) rotate(45)"/>
        <polygon class="cls-2" points="130.85 28.27 84.87 74.24 80.41 69.77 121.91 28.27 98.99 5.34 103.46 .88 130.85 28.27"/>
      </g>
      <g>
        <path class="cls-1" d="m247.09,41.63l12.7-36.61h16.85l-23.05,57.93h-13.09l-23.36-57.93h17.01l12.94,36.61Z"/>
        <path class="cls-1" d="m288.4,15.84c-2.3,0-4.21-.76-5.72-2.27-1.52-1.51-2.27-3.42-2.27-5.72s.77-4.12,2.31-5.6c1.54-1.49,3.44-2.23,5.68-2.23s4.13.75,5.65,2.23c1.51,1.49,2.27,3.36,2.27,5.6s-.76,4.21-2.27,5.72-3.4,2.27-5.65,2.27Zm6.98,3.84v43.27h-13.88V19.68h13.88Z"/>
        <path class="cls-1" d="m317.56,62.95h-13.8V19.68h13.25v5.33c2.77-4.34,6.61-6.51,11.52-6.51,1.88,0,3.69.39,5.41,1.18l-1.1,13.17c-1.99-.68-3.89-1.02-5.72-1.02-6.38,0-9.56,4.15-9.56,12.46v18.66Z"/>
        <path class="cls-1" d="m369.46,49.47l3.68,11.05c-4.03,2.35-8.62,3.53-13.8,3.53-10.71,0-16.07-5.96-16.07-17.87v-15.05h-6.58v-11.45h6.74V4.31h13.72v15.37h13.56v11.45h-13.56v13.41c0,4.6,1.83,6.9,5.49,6.9,2.09,0,4.36-.65,6.82-1.96Z"/>
        <path class="cls-1" d="m377.22,44.06v-24.38h13.88v24.54c0,2.14.63,3.88,1.88,5.21,1.25,1.33,2.93,2,5.02,2s3.84-.65,5.1-1.96,1.88-3.06,1.88-5.25v-24.54h13.88v24.38c0,6.32-1.84,11.24-5.53,14.74-3.68,3.5-8.79,5.25-15.33,5.25s-11.63-1.75-15.29-5.25c-3.66-3.5-5.49-8.41-5.49-14.74Z"/>
        <path class="cls-1" d="m459.07,23.6v-3.92h13.01v43.27h-13.01v-3.76c-3.55,3.24-7.81,4.86-12.78,4.86-6.12,0-11.19-2.2-15.21-6.59-3.97-4.34-5.96-9.77-5.96-16.31s1.99-11.97,5.96-16.15c3.97-4.28,9.04-6.43,15.21-6.43,5.02,0,9.28,1.67,12.78,5.02Zm-.16,17.64c0-2.77-.97-5.12-2.9-7.06-1.99-1.99-4.36-2.98-7.13-2.98s-5.25.99-7.13,2.98c-1.88,1.93-2.82,4.29-2.82,7.06s.94,5.28,2.82,7.21c1.99,1.99,4.36,2.98,7.13,2.98s5.15-.99,7.13-2.98,2.9-4.34,2.9-7.21Z"/>
        <path class="cls-1" d="m494.66,3.14v59.82h-13.8V3.14h13.8Z"/>
        <path class="cls-1" d="m275.86,137.59h-41.79v-57.93h41.86v13.56h-27.12v8.54h25.09v13.48h-25.09v8.78h27.05v13.56Z"/>
        <path class="cls-1" d="m315.05,98.23v-3.92h13.72v61.07h-13.88v-21.48c-3.35,3.19-7.47,4.78-12.39,4.78-6.01,0-11.03-2.2-15.05-6.59-3.97-4.44-5.96-9.85-5.96-16.23s1.96-11.79,5.88-16.07c3.97-4.39,9.04-6.59,15.21-6.59,4.91,0,9.07,1.67,12.46,5.02Zm-9.72,27.75c2.82,0,5.12-.97,6.9-2.9,1.88-1.93,2.82-4.29,2.82-7.06s-.91-5.19-2.74-7.09c-1.83-1.91-4.16-2.86-6.98-2.86s-5.16.95-7.02,2.86c-1.86,1.91-2.78,4.27-2.78,7.09s.91,5.07,2.74,7.06c1.78,1.93,4.13,2.9,7.06,2.9Z"/>
        <path class="cls-1" d="m336.93,118.69v-24.38h13.88v24.54c0,2.14.63,3.88,1.88,5.21,1.25,1.33,2.93,2,5.02,2s3.84-.65,5.1-1.96,1.88-3.06,1.88-5.25v-24.54h13.88v24.38c0,6.32-1.84,11.24-5.53,14.74-3.68,3.5-8.79,5.25-15.33,5.25s-11.63-1.75-15.29-5.25c-3.66-3.5-5.49-8.41-5.49-14.74Z"/>
        <path class="cls-1" d="m412.27,93.21c6.17,0,11.29,2.14,15.37,6.43,4.13,4.29,6.19,9.72,6.19,16.31s-2.04,11.97-6.12,16.31c-4.08,4.29-9.2,6.43-15.37,6.43-4.97,0-9.04-1.67-12.23-5.02v3.92h-13.33v-59.82h13.8v19.91c3.14-2.98,7.03-4.47,11.68-4.47Zm-9.45,29.87c1.85,1.93,4.19,2.9,7.02,2.9s5.17-.97,7.06-2.9c1.88-1.93,2.82-4.34,2.82-7.21s-.94-5.12-2.82-7.06c-1.83-1.99-4.18-2.98-7.06-2.98s-5.17.99-7.06,2.98c-1.83,1.99-2.74,4.34-2.74,7.06,0,2.87.93,5.28,2.78,7.21Z"/>
      </g>
    </g>
  </g>
</svg>