<?xml version="1.0" encoding="UTF-8"?>
<svg id="Layer_2" data-name="Layer 2" xmlns="http://www.w3.org/2000/svg" viewBox="0 0 535.08 270.18">
  <defs>
    <style>
      .cls-1 {
        fill: #1b1f4f;
      }

      .cls-2 {
        fill: #45b978;
      }
    </style>
  </defs>
  <g id="Layer_1-2" data-name="Layer 1">
    <g>
      <g>
        <path class="cls-1" d="m342.04,42.9l-74.51,74.51-74.51-74.51h-48.49l123,123,123-123h-48.5Z"/>
        <rect class="cls-2" x="226.83" y="7.71" width="50.95" height="70.38" transform="translate(104.23 -165.84) rotate(45)"/>
        <polygon class="cls-2" points="338.11 36.03 266.9 107.24 261.02 101.36 326.35 36.03 296.2 5.88 302.08 0 338.11 36.03"/>
        <rect class="cls-2" x="226.83" y="7.71" width="50.95" height="70.38" transform="translate(104.23 -165.84) rotate(45)"/>
        <polygon class="cls-2" points="316.66 36.03 256.19 96.5 250.31 90.63 304.9 36.03 274.75 5.88 280.63 0 316.66 36.03"/>
      </g>
      <g>
        <path class="cls-1" d="m31.63,228.87l13.41-38.66h17.8l-24.34,61.18h-13.83L0,190.2h17.97l13.66,38.66Z"/>
        <path class="cls-1" d="m75.26,201.63c-2.43,0-4.44-.8-6.04-2.4-1.6-1.6-2.4-3.61-2.4-6.04s.81-4.35,2.44-5.92c1.63-1.57,3.63-2.36,6-2.36s4.36.79,5.96,2.36c1.6,1.57,2.4,3.55,2.4,5.92s-.8,4.44-2.4,6.04-3.59,2.4-5.96,2.4Zm7.37,4.06v45.7h-14.65v-45.7h14.65Z"/>
        <path class="cls-1" d="m106.06,251.38h-14.57v-45.7h13.99v5.63c2.93-4.58,6.98-6.87,12.17-6.87,1.99,0,3.89.41,5.71,1.24l-1.16,13.91c-2.1-.72-4.11-1.08-6.04-1.08-6.73,0-10.1,4.39-10.1,13.16v19.7Z"/>
        <path class="cls-1" d="m160.86,237.14l3.89,11.67c-4.25,2.48-9.11,3.73-14.57,3.73-11.31,0-16.97-6.29-16.97-18.88v-15.9h-6.95v-12.09h7.12v-16.23h14.49v16.23h14.32v12.09h-14.32v14.16c0,4.86,1.93,7.29,5.8,7.29,2.21,0,4.61-.69,7.2-2.07Z"/>
        <path class="cls-1" d="m169.06,231.43v-25.75h14.65v25.91c0,2.26.66,4.1,1.99,5.51,1.32,1.41,3.09,2.11,5.3,2.11s4.06-.69,5.38-2.07,1.99-3.23,1.99-5.55v-25.91h14.65v25.75c0,6.68-1.95,11.87-5.84,15.57-3.89,3.7-9.29,5.55-16.19,5.55s-12.28-1.85-16.14-5.55c-3.86-3.7-5.8-8.89-5.8-15.57Z"/>
        <path class="cls-1" d="m255.49,209.82v-4.14h13.74v45.7h-13.74v-3.97c-3.75,3.42-8.25,5.13-13.49,5.13-6.46,0-11.81-2.32-16.06-6.96-4.2-4.58-6.29-10.32-6.29-17.22s2.1-12.64,6.29-17.06c4.19-4.52,9.55-6.79,16.06-6.79,5.3,0,9.8,1.77,13.49,5.3Zm-.16,18.63c0-2.93-1.02-5.41-3.06-7.45-2.1-2.1-4.61-3.15-7.53-3.15s-5.55,1.05-7.53,3.15c-1.99,2.04-2.98,4.53-2.98,7.45s.99,5.58,2.98,7.62c2.1,2.1,4.61,3.15,7.53,3.15s5.44-1.05,7.53-3.15,3.06-4.58,3.06-7.62Z"/>
        <path class="cls-1" d="m293.08,188.21v63.17h-14.57v-63.17h14.57Z"/>
        <path class="cls-1" d="m368.26,251.38h-44.13v-61.18h44.21v14.32h-28.65v9.02h26.49v14.24h-26.49v9.27h28.56v14.32Z"/>
        <path class="cls-1" d="m409.65,209.82v-4.14h14.49v64.49h-14.65v-22.68c-3.53,3.37-7.89,5.05-13.08,5.05-6.35,0-11.65-2.32-15.9-6.96-4.2-4.69-6.29-10.4-6.29-17.14s2.07-12.45,6.21-16.97c4.19-4.64,9.55-6.96,16.06-6.96,5.19,0,9.58,1.77,13.16,5.3Zm-10.27,29.31c2.98,0,5.41-1.02,7.29-3.06,1.99-2.04,2.98-4.53,2.98-7.45s-.97-5.48-2.9-7.49c-1.93-2.01-4.39-3.02-7.37-3.02s-5.45,1.01-7.41,3.02c-1.96,2.02-2.94,4.51-2.94,7.49s.96,5.35,2.9,7.45c1.88,2.04,4.36,3.06,7.45,3.06Z"/>
        <path class="cls-1" d="m432.75,231.43v-25.75h14.65v25.91c0,2.26.66,4.1,1.99,5.51,1.32,1.41,3.09,2.11,5.3,2.11s4.06-.69,5.38-2.07,1.99-3.23,1.99-5.55v-25.91h14.65v25.75c0,6.68-1.95,11.87-5.84,15.57-3.89,3.7-9.29,5.55-16.19,5.55s-12.28-1.85-16.14-5.55c-3.86-3.7-5.8-8.89-5.8-15.57Z"/>
        <path class="cls-1" d="m512.32,204.52c6.51,0,11.92,2.26,16.23,6.79,4.36,4.53,6.54,10.27,6.54,17.22s-2.15,12.64-6.46,17.22c-4.31,4.53-9.72,6.79-16.23,6.79-5.24,0-9.55-1.77-12.92-5.3v4.14h-14.08v-63.17h14.57v21.03c3.31-3.15,7.42-4.72,12.34-4.72Zm-9.98,31.54c1.96,2.04,4.43,3.06,7.41,3.06s5.46-1.02,7.45-3.06c1.99-2.04,2.98-4.58,2.98-7.62s-.99-5.41-2.98-7.45c-1.93-2.1-4.42-3.15-7.45-3.15s-5.46,1.05-7.45,3.15c-1.93,2.1-2.9,4.58-2.9,7.45,0,3.04.98,5.58,2.94,7.62Z"/>
      </g>
    </g>
  </g>
</svg>